<svg width="22" height="23" viewBox="0 0 22 23" fill="none" xmlns="http://www.w3.org/2000/svg">
<path fill-rule="evenodd" clip-rule="evenodd" d="M10.9993 22.5C4.93308 22.5 0 17.5664 0 11.5C0 5.43358 4.93308 0.5 10.9993 0.5C17.0654 0.5 22 5.43358 22 11.5C22 17.5664 17.0654 22.5 10.9993 22.5ZM11.0228 1.76593C8.46542 1.76906 6.01373 2.79406 4.20542 4.6161C2.39712 6.43814 1.37985 8.90846 1.37674 11.4852C1.37946 14.0622 2.39656 16.5329 4.20491 18.3553C6.01325 20.1776 8.46517 21.2028 11.0228 21.206C13.5806 21.2032 16.0329 20.1782 17.8415 18.3558C19.6502 16.5334 20.6675 14.0625 20.6702 11.4852C20.6671 8.9082 19.6496 6.43766 17.841 4.61558C16.0324 2.7935 13.5803 1.76867 11.0228 1.76593Z" fill="#EAEAEA"/>
<path fill-rule="evenodd" clip-rule="evenodd" d="M10 1H11V22H10V1Z" fill="#EAEAEA"/>
<path fill-rule="evenodd" clip-rule="evenodd" d="M1 10.5H21V11.5H1V10.5Z" fill="#EAEAEA"/>
<path fill-rule="evenodd" clip-rule="evenodd" d="M2 6.5H20V7.5H2V6.5Z" fill="#EAEAEA"/>
<path fill-rule="evenodd" clip-rule="evenodd" d="M2 15.5H20V16.5H2V15.5Z" fill="#EAEAEA"/>
<path fill-rule="evenodd" clip-rule="evenodd" d="M10.3466 22.5C6.49024 20.6082 4 16.2703 4 11.448C4 6.7371 6.41005 2.43934 10.1447 0.5L10.8292 1.81816C7.58167 3.50784 5.48494 7.28695 5.48494 11.448C5.48494 15.7056 7.65146 19.5204 11 21.164L10.3466 22.5Z" fill="#EAEAEA"/>
<path fill-rule="evenodd" clip-rule="evenodd" d="M11.7262 22.5L11 21.179C14.3119 19.4826 16.4517 15.6723 16.4517 11.4716C16.4517 7.32021 14.3475 3.52788 11.0944 1.81198L11.8361 0.5C15.58 2.47171 18 6.77866 18 11.4716C18.0015 16.2213 15.5366 20.5492 11.7262 22.5Z" fill="#EAEAEA"/>
</svg>
